# xmcd
#
# Track frame offsets:
#	150
#	23014
#	42802
#	56150
#	70579
#	86752
#	108280
#	124069
#	139346
#	154293
#	175541
#	190544
#	207751
#	223344
#	236714
#
# Disc length: 3394 seconds
#
# Revision: 0
# Processed by: cddbd v1.5.2PL0 Copyright (c) Steve Scherf et al.
# Submitted via: dBpowerAMP V4.0
#
DISCID=d00d400f
DTITLE=Alison Krauss - iTunes Essentials
DYEAR=2008
DGENRE=Country
TTITLE0=Baby, Now That I've Found You (live - with Union Station)
TTITLE1=When You Say Nothing At All (live - with Union Station)
TTITLE2=Down To The River to Pray
TTITLE3=The Lucky One (with Union Station)
TTITLE4=Gone, Gone, Gone, Done Moved On (with Robert Plant)
TTITLE5=Simple Love
TTITLE6=Forget About It
TTITLE7=Let Me Touch You For Awhile (with Union Station)
TTITLE8=How's The World Treating You (with James Taylor)
TTITLE9=Missing You (with John Waite)
TTITLE10=Everytime You Say Goodbye (with Union Station)
TTITLE11=Maybe
TTITLE12=Stay
TTITLE13=I've Got That Old Feeling
TTITLE14=I'll Fly Away (with Gillian Welch)
EXTD=
EXTT0=
EXTT1=
EXTT2=
EXTT3=
EXTT4=
EXTT5=
EXTT6=
EXTT7=
EXTT8=
EXTT9=
EXTT10=
EXTT11=
EXTT12=
EXTT13=
EXTT14=
PLAYORDER=
